<svg width="24" height="24" viewBox="0 0 24 24" fill="none" xmlns="http://www.w3.org/2000/svg">
<path opacity="0.9" d="M22.9967 16.2257V7.77434C22.9967 7.18285 22.8365 6.60177 22.5323 6.08949C22.2281 5.57721 21.7905 5.15176 21.2635 4.8559L13.1523 0.300965C12.801 0.103799 12.4024 0 11.9967 0C11.591 0 11.1924 0.103799 10.841 0.300965L2.72984 4.85271C2.203 5.14924 1.76577 5.57536 1.46212 6.08823C1.15846 6.60109 0.999082 7.18262 1 7.77434V16.2289C0.999994 16.8203 1.16014 17.4014 1.46437 17.9137C1.76859 18.426 2.20617 18.8514 2.73313 19.1473L10.8443 23.699C11.1957 23.8962 11.5943 24 12 24C12.4057 24 12.8043 23.8962 13.1556 23.699L21.2668 19.1473C21.7937 18.8508 22.2309 18.4246 22.5345 17.9118C22.8382 17.3989 22.9976 16.8174 22.9967 16.2257Z" fill="#F5B300"/>
<path opacity="0.6" d="M11.9967 0.334207C12.3421 0.334505 12.6813 0.422773 12.9805 0.59021L21.0937 5.14323C21.5677 5.40913 21.9613 5.79161 22.235 6.25222C22.5087 6.71283 22.6529 7.23535 22.653 7.76726V16.2282C22.6529 16.7601 22.5087 17.2826 22.235 17.7432C21.9613 18.2038 21.5677 18.5863 21.0937 18.8522L12.9805 23.4065C12.6814 23.5742 12.3421 23.6625 11.9967 23.6625C11.6514 23.6625 11.3121 23.5742 11.013 23.4065L2.89979 18.8535C2.4258 18.5876 2.03218 18.2051 1.75847 17.7445C1.48476 17.2839 1.3406 16.7614 1.3405 16.2295V7.76854C1.3406 7.23663 1.48476 6.71411 1.75847 6.2535C2.03218 5.79289 2.4258 5.41041 2.89979 5.14451L11.013 0.59021C11.3122 0.422773 11.6514 0.334505 11.9967 0.334207ZM11.9967 0.00012207C11.5911 0.000163481 11.1925 0.103901 10.8411 0.300926L2.72792 4.85395C2.2022 5.14978 1.7658 5.57482 1.46251 6.0864C1.15923 6.59799 0.999744 7.17811 1.00006 7.76854V16.2282C1.00008 16.8189 1.16006 17.3993 1.46394 17.9109C1.76782 18.4225 2.20488 18.8473 2.73122 19.1428L10.8444 23.6958C11.1958 23.8928 11.5943 23.9966 12 23.9966C12.4057 23.9966 12.8043 23.8928 13.1557 23.6958L21.2689 19.1428C21.7952 18.8473 22.2323 18.4225 22.5361 17.9109C22.84 17.3993 23 16.8189 23 16.2282V7.76854C23 7.1778 22.84 6.59746 22.5361 6.08585C22.2323 5.57424 21.7952 5.14937 21.2689 4.85395L13.1524 0.300926C12.801 0.103901 12.4024 0.000163481 11.9967 0.00012207Z" fill="#F5B300"/>
<path d="M12.0558 5L8.33755 7.1444L9.70466 7.93659L12.0558 6.5844L14.4071 7.93659L15.7741 7.1444L12.0558 5Z" fill="white"/>
<path d="M14.4071 9.05658L15.7741 9.84876V11.4331L13.4229 12.7854V15.4898L12.0558 16.2819L10.6889 15.4898V12.7854L8.33755 11.4331V9.84876L9.70466 9.05658L12.0558 10.4088L14.4071 9.05658Z" fill="white"/>
<path d="M15.7742 12.5531V14.1375L14.4072 14.9298V13.3454L15.7742 12.5531Z" fill="white"/>
<path d="M14.3935 16.0498L16.7448 14.6976V11.9932L18.1117 11.201V15.4898L14.3935 17.6342V16.0498Z" fill="white"/>
<path d="M16.7448 9.28873L15.3778 8.49654L16.7448 7.70435L18.1118 8.49654V10.081L16.7448 10.8731V9.28873Z" fill="white"/>
<path d="M10.6889 18.2077V16.6234L12.0559 17.4156L13.423 16.6234V18.2077L12.0559 19L10.6889 18.2077Z" fill="white"/>
<path d="M9.70466 14.9298L8.33755 14.1375V12.5531L9.70466 13.3454V14.9298Z" fill="white"/>
<path d="M12.0559 9.28873L10.6889 8.49654L12.0559 7.70435L13.423 8.49654L12.0559 9.28873Z" fill="white"/>
<path d="M8.73407 8.49654L7.3671 9.28873V10.8731L6 10.081V8.49654L7.3671 7.70435L8.73407 8.49654Z" fill="white"/>
<path d="M6 11.201L7.3671 11.9932V14.6976L9.71827 16.0498V17.6342L6 15.4898V11.201Z" fill="white"/>
</svg>
