<svg width="333" height="83" viewBox="0 0 333 83" fill="none" xmlns="http://www.w3.org/2000/svg">
<path d="M140 17.1V39.45C143.7 35.75 147.45 32.025 151.25 28.275C155.05 24.475 158.75 20.75 162.35 17.1H173.825L152.825 38.025C154.475 40.475 156.2 43.025 158 45.675C159.85 48.275 161.7 50.9 163.55 53.55C165.4 56.2 167.225 58.85 169.025 61.5C170.825 64.1 172.55 66.6 174.2 69H163.625L146.75 44.1L140 50.775V69H131.15V17.1H140ZM208.784 17.1L227.684 69H218.459L212.984 53.925H194.609L189.209 69H179.909L199.034 17.1H208.784ZM203.834 28.65L197.309 46.5H210.284L203.834 28.65ZM256.45 39.825L269.35 17.1H279.325L260.725 48.075V69H251.875V48.075C250.425 45.625 248.925 43.1 247.375 40.5C245.825 37.85 244.225 35.2 242.575 32.55C240.975 29.9 239.375 27.275 237.775 24.675C236.225 22.025 234.75 19.5 233.35 17.1H243.25L256.45 39.825ZM313.693 17.1L332.593 69H323.368L317.893 53.925H299.518L294.118 69H284.818L303.943 17.1H313.693ZM308.743 28.65L302.218 46.5H315.193L308.743 28.65Z" fill="black"/>
<path d="M41.2981 19.2275L55.5764 3.48438L60.0198 7.51562L44.0012 25.1768C40.929 28.5639 35.2981 26.3903 35.2981 21.8174V6H21.2981V76H15.2981V5C15.2981 2.23858 17.5367 0 20.2981 0H36.2981C39.0595 0 41.2981 2.23858 41.2981 5V19.2275Z" fill="black"/>
<path d="M63.4064 9.75361L63.4597 1.0742C63.4631 0.521926 63.0181 0.0714721 62.4658 0.0680839L53.7864 0.0148361C52.8955 0.00937058 52.4428 1.08376 53.0689 1.71757L61.695 10.4502C62.3211 11.0841 63.401 10.6445 63.4064 9.75361Z" fill="black"/>
<path d="M85.4792 0.543402C85.8502 0.194352 86.3403 0 86.8497 0H107.377C109.172 0 110.058 2.181 108.772 3.43299L84.1219 27.433C83.7484 27.7966 83.2478 28 82.7267 28H61.3423C59.531 28 58.6526 25.7846 59.9718 24.5434L85.4792 0.543402Z" fill="black"/>
<g filter="url(#filter3_d_2007_81)">
<path d="M53.1133 32.4219C55.0658 30.4693 58.2319 30.4695 60.1846 32.4219L108.298 80.5352H79.2109L59.4785 60.8028C57.9164 59.2409 55.3843 59.2409 53.8223 60.8028L34.0898 80.5352H5L53.1133 32.4219Z" fill="black"/>
</g>
<path d="M55.2081 67.9847C55.9891 67.2037 57.2551 67.2037 58.0362 67.9847L63.4092 73.3568C64.19 74.1377 64.1899 75.4039 63.4092 76.1849L58.0362 81.5579C57.2552 82.3385 55.989 82.3386 55.2081 81.5579L49.836 76.1849C49.055 75.4038 49.055 74.1378 49.836 73.3568L55.2081 67.9847Z" fill="black"/>
<defs>
<filter id="filter3_d_2007_81" x="0" y="20.9575" width="113.298" height="59.5776" filterUnits="userSpaceOnUse" color-interpolation-filters="sRGB">
<feFlood flood-opacity="0" result="BackgroundImageFix"/>
<feColorMatrix in="SourceAlpha" type="matrix" values="0 0 0 0 0 0 0 0 0 0 0 0 0 0 0 0 0 0 127 0" result="hardAlpha"/>
<feOffset dy="-5"/>
<feGaussianBlur stdDeviation="2.5"/>
<feComposite in2="hardAlpha" operator="out"/>
<feColorMatrix type="matrix" values="0 0 0 0 0.0836519 0 0 0 0 0.0743053 0 0 0 0 0 0 0 0 0.2 0"/>
<feBlend mode="normal" in2="BackgroundImageFix" result="effect1_dropShadow_2007_81"/>
<feBlend mode="normal" in="SourceGraphic" in2="effect1_dropShadow_2007_81" result="shape"/>
</filter>
</defs>
</svg>
